Coordinates
version=1
nRows=8
nColumns=36
inDegrees=yes

Units are S.I. units (second, meters, Newtons, ...)
If the header above contains a line with 'inDegrees', this indicates whether rotational values are in degrees (yes) or radians (no).

endheader
time	pelvis_tilt	pelvis_list	pelvis_rotation	pelvis_tx	pelvis_ty	pelvis_tz	hip_flexion_r	hip_adduction_r	hip_rotation_r	knee_angle_r	knee_angle_r_beta	ankle_angle_r	subtalar_angle_r	mtp_angle_r	hip_flexion_l	hip_adduction_l	hip_rotation_l	knee_angle_l	knee_angle_l_beta	ankle_angle_l	subtalar_angle_l	mtp_angle_l	lumbar_extension	lumbar_bending	lumbar_rotation	arm_flex_r	arm_add_r	arm_rot_r	elbow_flex_r	pro_sup_r	arm_flex_l	arm_add_l	arm_rot_l	elbow_flex_l	pro_sup_l
      0.00000000	      2.63485276	     -2.37223664	      1.15551295	      1.08049274	      0.92164803	      0.75088393	     24.33407214	     -2.20754819	     -7.38847097	     25.08148759	      0.43775454	     12.41831700	     -6.11309883	     -6.18227861	     -5.29745742	     -2.85787658	     -5.91793614	     16.37646197	      0.28582318	     21.47416456	      4.19075041	     -6.18227861	    -20.54955816	      4.33880815	     -2.81079366	     -1.17679666	    -16.90016492	      4.33941164	     26.20673741	     70.87821351	     19.35321843	    -14.42639002	     33.34077651	     26.04801667	     66.45067577
      0.01666670	     -0.32231867	     -1.67144177	      1.92020775	      1.07919853	      0.91897934	      0.75098073	     29.05804155	     -3.16683691	     -6.35669890	     25.25107992	      0.44071448	     11.47120802	     -2.76505923	     -6.25539499	     -1.84006886	     -1.73771223	     -4.85386052	     18.64916334	      0.32548930	     22.13514131	      1.94584344	     -6.25539499	    -17.72275752	      3.86901595	     -3.41099232	     -1.89200624	    -16.51707548	      4.49686513	     25.46591561	     69.76334857	     18.62434081	    -14.63546791	     34.32540473	     27.35771718	     65.79713975
      0.03333330	     -3.33319910	     -2.45903758	      1.87015862	      1.08114379	      0.91520393	      0.75133901	     32.31120304	     -2.34863288	     -4.19054227	     22.30666699	      0.38932478	      9.51379104	     -2.11245046	     -6.38140619	      0.50323057	     -2.37783041	     -4.00827027	     19.65618569	      0.34306516	     23.69530478	      4.47596134	     -6.38140619	    -14.01431349	      5.37620404	     -3.50944028	     -2.88211625	    -17.09228603	      4.92076390	     25.05649019	     69.53192766	     17.85263056	    -13.87022209	     35.27770615	     27.44860213	     65.42584128
      0.05000000	     -4.42320279	     -3.04624851	      1.58203771	      1.08422424	      0.91547637	      0.75288321	     33.18546127	     -1.55533807	     -3.21506242	     19.49023930	      0.34016885	      8.64682600	     -0.41849636	     -6.39221983	      0.38900169	     -3.02569121	     -4.16698425	     19.40783385	      0.33873060	     23.47595182	      5.36748663	     -6.39221983	    -12.84568790	      6.52963241	     -3.27001772	     -3.29147963	    -17.42330318	      4.70973576	     24.72075308	     69.43498678	     17.66061912	    -13.11880637	     35.16904407	     27.70636453	     65.31763245
      0.06666670	     -5.12471648	     -3.71071685	      1.15545131	      1.08678054	      0.91401156	      0.75498109	     33.23182984	     -0.49758475	     -2.64068562	     16.85302455	      0.29414077	      7.48466483	      2.05671006	     -6.52878584	     -0.11959620	     -4.07643172	     -5.40315131	     19.26092403	      0.33616654	     23.76209346	      7.27820271	     -6.52878584	    -12.05145731	      7.61744164	     -1.99718279	     -4.23599012	    -17.45729603	      2.16718804	     24.49675464	     67.32271307	     17.71308891	    -11.40427111	     32.08507698	     27.40332078	     62.68510823
      0.08333330	     -5.50272513	     -4.16482995	      0.71646642	      1.08755498	      0.90926998	      0.75664848	     32.99150231	      0.43808984	     -1.80584752	     15.09921057	      0.26353094	      5.85942269	      3.65068127	     -6.68470557	     -0.89747581	     -4.92190159	     -6.11788144	     19.26231809	      0.33619087	     23.51645443	      7.78049609	     -6.68470557	    -11.64214694	      8.33906297	     -0.92310977	     -4.95019393	    -17.48585889	      0.76384583	     24.39523140	     65.58885123	     17.59896887	    -10.31642503	     30.07382838	     27.87482965	     59.65841980
      0.10000000	     -5.86458168	     -4.45769579	      0.34075819	      1.08692280	      0.90493643	      0.75714775	     32.88234495	      1.15048257	     -1.06154865	     14.20364338	      0.24790034	      4.19108538	      4.83435608	     -6.69036360	     -1.35649685	     -5.64169518	     -6.62712841	     19.96819553	      0.34851076	     23.24256679	      7.62767415	     -6.69036360	    -11.19989937	      8.87093646	     -0.35294447	     -5.20778347	    -17.75784416	      0.71947593	     24.19268606	     65.52423167	     17.54504221	     -9.82650229	     29.88028608	     28.16545384	     59.50752986
      0.11666670	     -6.07276708	     -4.91943516	      0.10029650	      1.08646885	      0.90366346	      0.75714625	     32.73078505	      1.92539935	     -0.59401617	     14.05922213	      0.24537972	      2.54601812	      5.30281400	     -6.77839222	     -1.71616821	     -6.59092712	     -7.19653294	     21.29846953	      0.37172842	     23.22526583	      7.70880569	     -6.77839222	    -11.04220408	      9.62611574	      1.05530876	     -6.52277946	    -18.00192536	     -0.75814796	     24.99764541	     63.92564841	     17.38404464	     -8.38165620	     26.66674632	     28.78639225	     57.13025533
